<svg width="81" height="88" viewBox="0 0 81 88" fill="none" xmlns="http://www.w3.org/2000/svg">
<g opacity="0.84">
<path d="M56.7317 21.8279C59.2853 21.8278 61.7425 22.8914 63.6004 24.8012C65.4584 26.711 66.5767 29.3226 66.7265 32.1016L66.7432 32.7419V33.0548L66.9167 33.1239C67.7733 33.4935 68.5197 34.1136 69.0738 34.916C69.6279 35.7183 69.9681 36.6718 70.057 37.6714L70.0803 38.1989V49.1129C70.0805 50.2071 69.779 51.276 69.2148 52.181C68.6507 53.086 67.85 53.7852 66.9167 54.1879L66.7432 54.2534V54.5699C66.7433 57.3537 65.7677 60.0324 64.0158 62.0578C62.2639 64.0833 59.8683 65.3024 57.319 65.4657L56.7317 65.4839H20.023C17.4693 65.484 15.0122 64.4204 13.1542 62.5106C11.2963 60.6008 10.178 57.9892 10.0282 55.2102L10.0115 54.5699V32.7419C10.0113 29.9581 10.987 27.2794 12.7389 25.254C14.4908 23.2285 16.8864 22.0095 19.4356 21.8461L20.023 21.8279H56.7317ZM23.3601 32.7419C22.475 32.7419 21.6262 33.1252 21.0004 33.8075C20.3745 34.4897 20.023 35.4151 20.023 36.3799V50.9319L20.0463 51.3575C20.1468 52.2783 20.566 53.1225 21.2182 53.7176C21.8705 54.3128 22.7066 54.6139 23.5557 54.5596C24.4048 54.5053 25.2028 54.0995 25.7867 53.4253C26.3706 52.751 26.6963 51.8591 26.6973 50.9319V36.3799L26.6739 35.9543C26.5783 35.0693 26.188 34.2534 25.5772 33.6613C24.9664 33.0692 24.1775 32.742 23.3601 32.7419ZM33.3716 32.7419C32.4865 32.7419 31.6377 33.1252 31.0119 33.8075C30.386 34.4897 30.0344 35.4151 30.0344 36.3799V50.9319L30.0578 51.3575C30.1583 52.2783 30.5774 53.1225 31.2297 53.7176C31.882 54.3128 32.7181 54.6139 33.5672 54.5596C34.4163 54.5053 35.2143 54.0995 35.7982 53.4253C36.3821 52.751 36.7078 51.8591 36.7087 50.9319V36.3799L36.6854 35.9543C36.5898 35.0693 36.1995 34.2534 35.5887 33.6613C34.9779 33.0692 34.189 32.742 33.3716 32.7419ZM43.3831 32.7419C42.498 32.7419 41.6492 33.1252 41.0233 33.8075C40.3975 34.4897 40.0459 35.4151 40.0459 36.3799V50.9319L40.0693 51.3575C40.1697 52.2783 40.5889 53.1225 41.2412 53.7176C41.8934 54.3128 42.7295 54.6139 43.5786 54.5596C44.4278 54.5053 45.2258 54.0995 45.8097 53.4253C46.3936 52.751 46.7193 51.8591 46.7202 50.9319V36.3799L46.6969 35.9543C46.6012 35.0693 46.211 34.2534 45.6002 33.6613C44.9894 33.0692 44.2005 32.742 43.3831 32.7419ZM53.3945 32.7419C52.5095 32.7419 51.6607 33.1252 51.0348 33.8075C50.409 34.4897 50.0574 35.4151 50.0574 36.3799V50.9319L50.0807 51.3575C50.1812 52.2783 50.6004 53.1225 51.2527 53.7176C51.9049 54.3128 52.741 54.6139 53.5901 54.5596C54.4392 54.5053 55.2373 54.0995 55.8212 53.4253C56.4051 52.751 56.7308 51.8591 56.7317 50.9319V36.3799L56.7083 35.9543C56.6127 35.0693 56.2225 34.2534 55.6117 33.6613C55.0008 33.0692 54.2119 32.742 53.3945 32.7419Z" fill="black"/>
</g>
</svg>
