<svg width="44" height="44" viewBox="0 0 44 44" fill="none" xmlns="http://www.w3.org/2000/svg">
<g clip-path="url(#clip0_264_1658)">
<path d="M43.5985 35.3486L30.25 22.0001L43.5985 8.6516C43.8543 8.3927 43.9977 8.04342 43.9977 7.67948C43.9977 7.31554 43.8543 6.96626 43.5985 6.70735L37.2927 0.401605C37.0349 0.143832 36.6852 -0.000976562 36.3206 -0.000976562C35.956 -0.000976562 35.6063 0.143832 35.3485 0.401605L22 13.7501L8.65148 0.401605C8.39363 0.143832 8.04396 -0.000976562 7.67936 -0.000976562C7.31476 -0.000976562 6.96508 0.143832 6.70723 0.401605L0.401483 6.70735C0.14371 6.9652 -0.00109863 7.31488 -0.00109863 7.67948C-0.00109863 8.04408 0.14371 8.39375 0.401483 8.6516L13.75 22.0001L0.401483 35.3486C0.14371 35.6065 -0.00109863 35.9561 -0.00109863 36.3207C-0.00109863 36.6853 0.14371 37.035 0.401483 37.2929L6.70723 43.5986C6.96508 43.8564 7.31476 44.0012 7.67936 44.0012C8.04396 44.0012 8.39363 43.8564 8.65148 43.5986L22 30.2501L35.3485 43.5986C35.6063 43.8564 35.956 44.0012 36.3206 44.0012C36.6852 44.0012 37.0349 43.8564 37.2927 43.5986L43.5985 37.2929C43.8563 37.035 44.0011 36.6853 44.0011 36.3207C44.0011 35.9561 43.8563 35.6065 43.5985 35.3486Z" fill="#2E58B1"/>
</g>
<defs>
<clipPath id="clip0_264_1658">
<rect width="44" height="44" fill="white"/>
</clipPath>
</defs>
</svg>
