<svg width="255" height="255" viewBox="0 0 255 255" fill="none" xmlns="http://www.w3.org/2000/svg">
<g clip-path="url(#clip0_264_1660)">
<path d="M110.921 34.7907C112.819 32.5149 115.172 30.6619 117.829 29.3513C120.486 28.0408 123.388 27.3018 126.349 27.1819C129.309 27.0621 132.262 27.564 135.016 28.6555C137.771 29.7469 140.266 31.4036 142.341 33.5187L143.486 34.7907L185.177 84.803H216.819C219.043 84.7982 221.244 85.2635 223.276 86.1682C225.308 87.073 227.126 88.3968 228.611 90.0531C230.097 91.7093 231.215 93.6606 231.894 95.7791C232.572 97.8976 232.796 100.136 232.549 102.346L231.574 110.466L230.514 118.311L229.645 124.183L228.638 130.49L227.493 137.115L226.2 143.984L224.758 150.991C223.995 154.525 223.175 158.055 222.299 161.581C219.953 170.888 217.007 180.034 213.479 188.962L211.137 194.686L208.868 199.859L206.727 204.459L205.731 206.516L203.091 211.71C199.699 218.176 193.296 221.992 186.523 222.543L184.827 222.607H69.4849C65.779 222.635 62.1352 221.655 58.9427 219.773C55.7501 217.891 53.1287 215.178 51.3584 211.922L48.8991 207.152L46.991 203.23L45.984 201.057L43.8639 196.297C39.0228 185.056 35.095 173.443 32.1188 161.57C31.5433 159.265 30.9921 156.954 30.4652 154.638L28.9599 147.769L27.6137 141.048L26.4264 134.55L25.3664 128.328L24.4442 122.455L23.6598 117.017L22.7057 109.777L22.0061 103.884L21.8259 102.262C21.6066 100.179 21.8037 98.0738 22.4056 96.0681C23.0075 94.0623 24.0022 92.1964 25.3319 90.5786C26.6616 88.9609 28.2997 87.6238 30.1509 86.6449C32.0021 85.6661 34.0295 85.0652 36.1151 84.8772L37.5568 84.803H69.2411L110.921 34.7907ZM210.766 106.004H43.5989L44.2562 111.134L45.0618 116.943L46.037 123.346L47.1818 130.215C47.6059 132.568 48.0511 134.978 48.5175 137.444L50.0333 144.939C50.8389 148.733 51.7294 152.592 52.6834 156.429C55.3735 167.144 58.9183 177.626 63.2837 187.774L65.3614 192.449L67.2906 196.52L69.0185 199.944L69.7817 201.406H184.551L186.184 198.194L188.06 194.325L190.116 189.841C194.007 181.096 198.459 169.51 201.724 156.429C203.049 151.129 204.225 145.744 205.275 140.455L206.759 132.632L208.031 125.116L208.593 121.522L209.6 114.77L210.416 108.728L210.766 106.004ZM105.855 136.066L111.155 167.867C111.525 170.598 110.817 173.366 109.18 175.584C107.544 177.802 105.108 179.295 102.39 179.747C99.6709 180.199 96.883 179.575 94.6169 178.006C92.3508 176.437 90.7848 174.048 90.2509 171.344L84.9507 139.543C84.6759 138.151 84.6833 136.718 84.9725 135.329C85.2617 133.94 85.8269 132.623 86.6345 131.456C87.4422 130.289 88.4758 129.297 89.6742 128.537C90.8726 127.777 92.2113 127.266 93.611 127.033C95.0107 126.8 96.4429 126.851 97.8227 127.181C99.2025 127.512 100.502 128.117 101.644 128.959C102.785 129.802 103.746 130.865 104.47 132.086C105.193 133.306 105.664 134.66 105.855 136.066ZM159.513 127.204L160.743 127.342C163.309 127.765 165.629 129.117 167.263 131.14C168.897 133.163 169.731 135.716 169.605 138.313L169.467 139.543L164.167 171.344C163.717 174.006 162.269 176.396 160.117 178.027C157.966 179.657 155.273 180.406 152.589 180.119C149.904 179.832 147.431 178.532 145.672 176.484C143.913 174.436 143.003 171.793 143.125 169.097L143.263 167.867L148.563 136.066C148.986 133.504 150.335 131.187 152.353 129.553C154.372 127.92 156.92 127.084 159.513 127.204ZM127.204 48.3591L96.8337 84.803H157.573L127.204 48.3591Z" fill="#2E58B1"/>
<path d="M110.921 34.7907C112.819 32.5149 115.172 30.6619 117.829 29.3513C120.486 28.0408 123.388 27.3018 126.349 27.1819C129.309 27.0621 132.262 27.564 135.016 28.6555C137.771 29.7469 140.266 31.4036 142.341 33.5187L143.486 34.7907L185.177 84.803H216.819C219.043 84.7982 221.244 85.2635 223.276 86.1682C225.308 87.073 227.126 88.3968 228.611 90.0531C230.097 91.7093 231.215 93.6606 231.894 95.7791C232.572 97.8976 232.796 100.136 232.549 102.346L231.574 110.466L230.514 118.311L229.645 124.183L228.638 130.49L227.493 137.115L226.2 143.984L224.758 150.991C223.995 154.525 223.175 158.055 222.299 161.581C219.953 170.888 217.007 180.034 213.479 188.962L211.137 194.686L208.868 199.859L206.727 204.459L205.731 206.516L203.091 211.71C199.699 218.176 193.296 221.992 186.523 222.543L184.827 222.607H69.4849C65.779 222.635 62.1352 221.655 58.9427 219.773C55.7501 217.891 53.1287 215.178 51.3584 211.922L48.8991 207.152L46.991 203.23L45.984 201.057L43.8639 196.297C39.0228 185.056 35.095 173.443 32.1188 161.57C31.5433 159.265 30.9921 156.954 30.4652 154.638L28.9599 147.769L27.6137 141.048L26.4264 134.55L25.3664 128.328L24.4442 122.455L23.6598 117.017L22.7057 109.777L22.0061 103.884L21.8259 102.262C21.6066 100.179 21.8037 98.0738 22.4056 96.0681C23.0075 94.0623 24.0022 92.1964 25.3319 90.5786C26.6616 88.9609 28.2997 87.6238 30.1509 86.6449C32.0021 85.6661 34.0295 85.0652 36.1151 84.8772L37.5568 84.803H69.2411L110.921 34.7907ZM210.766 106.004H43.5989L44.2562 111.134L45.0618 116.943L46.037 123.346L47.1818 130.215C47.6059 132.568 48.0511 134.978 48.5175 137.444L50.0333 144.939C50.8389 148.733 51.7294 152.592 52.6834 156.429C55.3735 167.144 58.9183 177.626 63.2837 187.774L65.3614 192.449L67.2906 196.52L69.0185 199.944L69.7817 201.406H184.551L186.184 198.194L188.06 194.325L190.116 189.841C194.007 181.096 198.459 169.51 201.724 156.429C203.049 151.129 204.225 145.744 205.275 140.455L206.759 132.632L208.031 125.116L208.593 121.522L209.6 114.77L210.416 108.728L210.766 106.004ZM105.855 136.066L111.155 167.867C111.525 170.598 110.817 173.366 109.18 175.584C107.544 177.802 105.108 179.295 102.39 179.747C99.6709 180.199 96.883 179.575 94.6169 178.006C92.3508 176.437 90.7848 174.048 90.2509 171.344L84.9507 139.543C84.6759 138.151 84.6833 136.718 84.9725 135.329C85.2617 133.94 85.8269 132.623 86.6345 131.456C87.4422 130.289 88.4758 129.297 89.6742 128.537C90.8726 127.777 92.2113 127.266 93.611 127.033C95.0107 126.8 96.4429 126.851 97.8227 127.181C99.2025 127.512 100.502 128.117 101.644 128.959C102.785 129.802 103.746 130.865 104.47 132.086C105.193 133.306 105.664 134.66 105.855 136.066ZM159.513 127.204L160.743 127.342C163.309 127.765 165.629 129.117 167.263 131.14C168.897 133.163 169.731 135.716 169.605 138.313L169.467 139.543L164.167 171.344C163.717 174.006 162.269 176.396 160.117 178.027C157.966 179.657 155.273 180.406 152.589 180.119C149.904 179.832 147.431 178.532 145.672 176.484C143.913 174.436 143.003 171.793 143.125 169.097L143.263 167.867L148.563 136.066C148.986 133.504 150.335 131.187 152.353 129.553C154.372 127.92 156.92 127.084 159.513 127.204ZM127.204 48.3591L96.8337 84.803H157.573L127.204 48.3591Z" fill="white" fill-opacity="0.2"/>
<g clip-path="url(#clip1_264_1660)">
<path d="M248.207 236.617L220.759 209.169L248.207 181.721C248.733 181.189 249.028 180.471 249.028 179.722C249.028 178.974 248.733 178.256 248.207 177.723L235.241 164.757C234.71 164.227 233.991 163.929 233.242 163.929C232.492 163.929 231.773 164.227 231.243 164.757L203.795 192.205L176.347 164.757C175.816 164.227 175.097 163.929 174.348 163.929C173.598 163.929 172.879 164.227 172.349 164.757L159.382 177.723C158.852 178.254 158.554 178.973 158.554 179.722C158.554 180.472 158.852 181.191 159.382 181.721L186.83 209.169L159.382 236.617C158.852 237.148 158.554 237.867 158.554 238.616C158.554 239.366 158.852 240.085 159.382 240.615L172.349 253.582C172.879 254.112 173.598 254.41 174.348 254.41C175.097 254.41 175.816 254.112 176.347 253.582L203.795 226.134L231.243 253.582C231.773 254.112 232.492 254.41 233.242 254.41C233.991 254.41 234.71 254.112 235.241 253.582L248.207 240.615C248.737 240.085 249.035 239.366 249.035 238.616C249.035 237.867 248.737 237.148 248.207 236.617Z" fill="#2E58B1"/>
<path d="M248.207 236.617L220.759 209.169L248.207 181.721C248.733 181.189 249.028 180.471 249.028 179.722C249.028 178.974 248.733 178.256 248.207 177.723L235.241 164.757C234.71 164.227 233.991 163.929 233.242 163.929C232.492 163.929 231.773 164.227 231.243 164.757L203.795 192.205L176.347 164.757C175.816 164.227 175.097 163.929 174.348 163.929C173.598 163.929 172.879 164.227 172.349 164.757L159.382 177.723C158.852 178.254 158.554 178.973 158.554 179.722C158.554 180.472 158.852 181.191 159.382 181.721L186.83 209.169L159.382 236.617C158.852 237.148 158.554 237.867 158.554 238.616C158.554 239.366 158.852 240.085 159.382 240.615L172.349 253.582C172.879 254.112 173.598 254.41 174.348 254.41C175.097 254.41 175.816 254.112 176.347 253.582L203.795 226.134L231.243 253.582C231.773 254.112 232.492 254.41 233.242 254.41C233.991 254.41 234.71 254.112 235.241 253.582L248.207 240.615C248.737 240.085 249.035 239.366 249.035 238.616C249.035 237.867 248.737 237.148 248.207 236.617Z" fill="white" fill-opacity="0.2"/>
</g>
</g>
<defs>
<clipPath id="clip0_264_1660">
<rect width="254.407" height="254.407" fill="white"/>
</clipPath>
<clipPath id="clip1_264_1660">
<rect width="90.4759" height="90.4759" fill="white" transform="translate(158.557 163.931)"/>
</clipPath>
</defs>
</svg>
