<svg width="69" height="75" viewBox="0 0 69 75" fill="none" xmlns="http://www.w3.org/2000/svg">
<path d="M34.3251 21.828C35.1355 21.828 35.8153 21.5286 36.3645 20.9299C36.9137 20.3312 37.1874 19.5911 37.1855 18.7097C37.1836 17.8283 36.909 17.0882 36.3617 16.4895C35.8144 15.8908 35.1355 15.5914 34.3251 15.5914C33.5146 15.5914 32.8357 15.8908 32.2884 16.4895C31.7411 17.0882 31.4665 17.8283 31.4646 18.7097C31.4627 19.5911 31.7373 20.3322 32.2884 20.933C32.8395 21.5338 33.5184 21.8321 34.3251 21.828ZM42.4057 21.828H47.4115C48.8417 21.828 50.0812 22.3477 51.13 23.3871C52.1789 24.4265 52.8225 25.6998 53.0608 27.207L57.1369 58.3898C57.3753 60.2608 56.9348 61.9114 55.8154 63.3416C54.696 64.7719 53.2534 65.486 51.4876 65.4839H17.1625C15.3986 65.4839 13.956 64.7698 12.8347 63.3416C11.7134 61.9135 11.2729 60.2629 11.5132 58.3898L15.5893 27.207C15.8277 25.6998 16.4713 24.4265 17.5201 23.3871C18.5689 22.3477 19.8084 21.828 21.2386 21.828H26.2444C26.1013 21.3083 25.9822 20.8021 25.8868 20.3094C25.7915 19.8167 25.7438 19.2835 25.7438 18.7097C25.7438 16.1111 26.5781 13.9023 28.2467 12.0834C29.9152 10.2644 31.9414 9.35486 34.3251 9.35486C36.7087 9.35486 38.7349 10.2644 40.4035 12.0834C42.072 13.9023 42.9063 16.1111 42.9063 18.7097C42.9063 19.2814 42.8586 19.8146 42.7633 20.3094C42.668 20.8041 42.5488 21.3103 42.4057 21.828Z" fill="black"/>
</svg>
