<svg width="48" height="48" viewBox="0 0 48 48" fill="none" xmlns="http://www.w3.org/2000/svg">
<path d="M33.1999 11.64C31.8331 10.0791 31.0797 8.0748 31.0799 6H24.8999V30.8C24.8533 32.1424 24.287 33.4142 23.3206 34.347C22.3541 35.2798 21.0631 35.8008 19.7199 35.8C16.8799 35.8 14.5199 33.48 14.5199 30.6C14.5199 27.16 17.8399 24.58 21.2599 25.64V19.32C14.3599 18.4 8.31995 23.76 8.31995 30.6C8.31995 37.26 13.8399 42 19.6999 42C25.9799 42 31.0799 36.9 31.0799 30.6V18.02C33.5859 19.8197 36.5947 20.7853 39.6799 20.78V14.6C39.6799 14.6 35.9199 14.78 33.1999 11.64Z" fill="#F9F0EB"/>
</svg>
